<svg xmlns="http://www.w3.org/2000/svg" version="1.1" xmlns:xlink="http://www.w3.org/1999/xlink" viewBox="0 0 200 200"><rect width="200" height="200" fill="url('#gradient')"></rect><defs><linearGradient id="gradient" gradientTransform="rotate(134 0.5 0.5)"><stop offset="0%" stop-color="#b4d5d9"></stop><stop offset="100%" stop-color="#6a5d99"></stop></linearGradient></defs><g><g fill="#1b3855" transform="matrix(0.7147862272635748,0,0,0.7147862272635748,47.553535743029826,105.29521865154706)" stroke="#0e5278" stroke-width="0.45"><path d="M8.41-3.78L8.41-3.78Q8.41-4.53 7.88-4.95Q7.34-5.37 6.01-5.82Q4.67-6.27 3.82-6.69L3.82-6.69Q1.05-8.05 1.05-10.42L1.05-10.42Q1.05-11.60 1.74-12.50Q2.43-13.41 3.69-13.91Q4.95-14.41 6.52-14.41L6.52-14.41Q8.06-14.41 9.27-13.87Q10.49-13.32 11.16-12.31Q11.84-11.30 11.84-10L11.84-10L8.42-10Q8.42-10.87 7.89-11.35Q7.35-11.83 6.45-11.83L6.45-11.83Q5.53-11.83 5.00-11.42Q4.46-11.02 4.46-10.39L4.46-10.39Q4.46-9.84 5.05-9.40Q5.63-8.96 7.11-8.48Q8.58-8.01 9.53-7.46L9.53-7.46Q11.84-6.13 11.84-3.80L11.84-3.80Q11.84-1.93 10.43-0.87Q9.02 0.20 6.57 0.20L6.57 0.20Q4.84 0.20 3.44-0.42Q2.04-1.04 1.33-2.12Q0.63-3.20 0.63-4.61L0.63-4.61L4.06-4.61Q4.06-3.47 4.65-2.92Q5.24-2.38 6.57-2.38L6.57-2.38Q7.42-2.38 7.92-2.75Q8.41-3.12 8.41-3.78ZM13.98-13.19L17.28-13.19L17.28-10.57L19.01-10.57L19.01-8.28L17.28-8.28L17.28-3.45Q17.28-2.85 17.49-2.62Q17.71-2.38 18.34-2.38L18.34-2.38Q18.83-2.38 19.16-2.44L19.16-2.44L19.16-0.09Q18.27 0.20 17.30 0.20L17.30 0.20Q15.61 0.20 14.79-0.61Q13.98-1.41 13.98-3.04L13.98-3.04L13.98-8.28L12.64-8.28L12.64-10.57L13.98-10.57L13.98-13.19ZM19.61-4.82L19.60-5.38Q19.60-6.96 20.21-8.20Q20.83-9.43 21.98-10.10Q23.13-10.76 24.69-10.76L24.69-10.76Q27.06-10.76 28.43-9.29Q29.79-7.82 29.79-5.29L29.79-5.29L29.79-5.18Q29.79-2.71 28.42-1.25Q27.05 0.20 24.71 0.20L24.71 0.20Q22.45 0.20 21.08-1.16Q19.72-2.51 19.61-4.82L19.61-4.82ZM22.90-5.77L22.89-5.18Q22.89-3.71 23.35-3.03Q23.81-2.34 24.71-2.34L24.71-2.34Q26.46-2.34 26.50-5.05L26.50-5.05L26.50-5.38Q26.50-8.22 24.69-8.22L24.69-8.22Q23.04-8.22 22.90-5.77L22.90-5.77ZM35.71-2.34L35.71-2.34Q36.41-2.34 36.79-2.72Q37.17-3.10 37.16-3.77L37.16-3.77L40.24-3.77Q40.24-2.03 39.00-0.92Q37.75 0.20 35.79 0.20L35.79 0.20Q33.49 0.20 32.16-1.25Q30.83-2.70 30.83-5.25L30.83-5.25L30.83-5.39Q30.83-6.99 31.42-8.22Q32.01-9.44 33.13-10.10Q34.24-10.76 35.76-10.76L35.76-10.76Q37.82-10.76 39.03-9.62Q40.24-8.48 40.24-6.52L40.24-6.52L37.16-6.52Q37.16-7.34 36.76-7.78Q36.36-8.22 35.68-8.22L35.68-8.22Q34.40-8.22 34.19-6.59L34.19-6.59Q34.12-6.07 34.12-5.17L34.12-5.17Q34.12-3.57 34.50-2.96Q34.88-2.34 35.71-2.34ZM48.18 0L45.88-3.94L44.95-3.01L44.95 0L41.66 0L41.66-15.01L44.95-15.01L44.95-7.04L45.28-7.48L47.76-10.57L51.71-10.57L48.01-6.22L51.95 0L48.18 0ZM63.32-4.82L61.13-4.82L61.13 0L57.71 0L57.71-14.22L63.38-14.22Q65.01-14.22 66.26-13.62Q67.52-13.02 68.21-11.91Q68.90-10.80 68.90-9.39L68.90-9.39Q68.90-7.31 67.41-6.07Q65.92-4.82 63.32-4.82L63.32-4.82ZM61.13-11.57L61.13-7.47L63.38-7.47Q64.38-7.47 64.90-7.97Q65.42-8.47 65.42-9.38L65.42-9.38Q65.42-10.37 64.88-10.97Q64.35-11.56 63.42-11.57L63.42-11.57L61.13-11.57ZM79.71 0L76.42 0Q76.24-0.32 76.10-0.95L76.10-0.95Q75.20 0.20 73.56 0.20L73.56 0.20Q72.07 0.20 71.03-0.71Q69.98-1.61 69.98-2.98L69.98-2.98Q69.98-4.70 71.25-5.58Q72.52-6.46 74.94-6.46L74.94-6.46L75.96-6.46L75.96-7.01Q75.96-8.47 74.70-8.47L74.70-8.47Q73.53-8.47 73.53-7.31L73.53-7.31L70.23-7.31Q70.23-8.85 71.54-9.80Q72.84-10.76 74.86-10.76Q76.88-10.76 78.06-9.78Q79.23-8.79 79.26-7.07L79.26-7.07L79.26-2.39Q79.28-0.94 79.71-0.17L79.71-0.17L79.71 0ZM74.36-2.15L74.36-2.15Q74.97-2.15 75.38-2.41Q75.78-2.68 75.96-3.01L75.96-3.01L75.96-4.70L75-4.70Q73.28-4.70 73.28-3.15L73.28-3.15Q73.28-2.71 73.58-2.43Q73.89-2.15 74.36-2.15ZM81.62-13.19L84.91-13.19L84.91-10.57L86.65-10.57L86.65-8.28L84.91-8.28L84.91-3.45Q84.91-2.85 85.13-2.62Q85.34-2.38 85.98-2.38L85.98-2.38Q86.46-2.38 86.80-2.44L86.80-2.44L86.80-0.09Q85.91 0.20 84.94 0.20L84.94 0.20Q83.24 0.20 82.43-0.61Q81.62-1.41 81.62-3.04L81.62-3.04L81.62-8.28L80.27-8.28L80.27-10.57L81.62-10.57L81.62-13.19ZM91.16-15L91.16-9.43Q92.22-10.76 93.86-10.76L93.86-10.76Q95.61-10.76 96.49-9.73Q97.38-8.69 97.40-6.67L97.40-6.67L97.40 0L94.10 0L94.10-6.59Q94.10-7.43 93.76-7.83Q93.42-8.22 92.60-8.22L92.60-8.22Q91.58-8.22 91.16-7.58L91.16-7.58L91.16 0L87.87 0L87.87-15L91.16-15ZM104.77-2.97L104.77-2.97Q104.77-3.39 104.33-3.64Q103.89-3.90 102.66-4.17Q101.43-4.44 100.63-4.89Q99.82-5.33 99.40-5.97Q98.98-6.60 98.98-7.42L98.98-7.42Q98.98-8.88 100.19-9.82Q101.39-10.76 103.33-10.76L103.33-10.76Q105.42-10.76 106.69-9.81Q107.96-8.87 107.96-7.32L107.96-7.32L104.66-7.32Q104.66-8.59 103.32-8.59L103.32-8.59Q102.80-8.59 102.45-8.31Q102.10-8.02 102.10-7.59L102.10-7.59Q102.10-7.15 102.53-6.88Q102.96-6.60 103.90-6.43Q104.84-6.25 105.56-6.01L105.56-6.01Q107.94-5.19 107.94-3.07L107.94-3.07Q107.94-1.62 106.66-0.71Q105.37 0.20 103.33 0.20L103.33 0.20Q101.97 0.20 100.91-0.29Q99.84-0.78 99.25-1.62Q98.65-2.46 98.65-3.39L98.65-3.39L101.73-3.39Q101.75-2.66 102.22-2.32Q102.69-1.98 103.42-1.98L103.42-1.98Q104.09-1.98 104.43-2.26Q104.77-2.53 104.77-2.97ZM112.70-15L112.70-9.43Q113.75-10.76 115.39-10.76L115.39-10.76Q117.14-10.76 118.03-9.73Q118.92-8.69 118.94-6.67L118.94-6.67L118.94 0L115.63 0L115.63-6.59Q115.63-7.43 115.29-7.83Q114.95-8.22 114.13-8.22L114.13-8.22Q113.12-8.22 112.70-7.58L112.70-7.58L112.70 0L109.40 0L109.40-15L112.70-15ZM130.01 0L126.72 0Q126.54-0.32 126.41-0.95L126.41-0.95Q125.50 0.20 123.87 0.20L123.87 0.20Q122.37 0.20 121.33-0.71Q120.28-1.61 120.28-2.98L120.28-2.98Q120.28-4.70 121.55-5.58Q122.82-6.46 125.24-6.46L125.24-6.46L126.26-6.46L126.26-7.01Q126.26-8.47 125-8.47L125-8.47Q123.83-8.47 123.83-7.31L123.83-7.31L120.54-7.31Q120.54-8.85 121.84-9.80Q123.14-10.76 125.17-10.76Q127.19-10.76 128.36-9.78Q129.53-8.79 129.56-7.07L129.56-7.07L129.56-2.39Q129.58-0.94 130.01-0.17L130.01-0.17L130.01 0ZM124.66-2.15L124.66-2.15Q125.27-2.15 125.68-2.41Q126.08-2.68 126.26-3.01L126.26-3.01L126.26-4.70L125.30-4.70Q123.58-4.70 123.58-3.15L123.58-3.15Q123.58-2.71 123.89-2.43Q124.19-2.15 124.66-2.15ZM134.85-15L134.85 0L131.55 0L131.55-15L134.85-15ZM146.12 0L142.83 0Q142.66-0.32 142.52-0.95L142.52-0.95Q141.61 0.20 139.98 0.20L139.98 0.20Q138.49 0.20 137.44-0.71Q136.40-1.61 136.40-2.98L136.40-2.98Q136.40-4.70 137.67-5.58Q138.94-6.46 141.36-6.46L141.36-6.46L142.37-6.46L142.37-7.01Q142.37-8.47 141.11-8.47L141.11-8.47Q139.94-8.47 139.94-7.31L139.94-7.31L136.65-7.31Q136.65-8.85 137.95-9.80Q139.26-10.76 141.28-10.76Q143.30-10.76 144.47-9.78Q145.64-8.79 145.67-7.07L145.67-7.07L145.67-2.39Q145.69-0.94 146.12-0.17L146.12-0.17L146.12 0ZM140.77-2.15L140.77-2.15Q141.39-2.15 141.79-2.41Q142.20-2.68 142.37-3.01L142.37-3.01L142.37-4.70L141.42-4.70Q139.70-4.70 139.70-3.15L139.70-3.15Q139.70-2.71 140-2.43Q140.30-2.15 140.77-2.15Z"></path></g></g></svg>